<?xml version="1.0" encoding="utf-8"?>
<!-- Generator: Adobe Illustrator 21.0.0, SVG Export Plug-In . SVG Version: 6.00 Build 0)  -->
<svg version="1.1" id="Layer_1" xmlns="http://www.w3.org/2000/svg" xmlns:xlink="http://www.w3.org/1999/xlink" x="0px" y="0px"
	 viewBox="0 0 512 512" style="enable-background:new 0 0 512 512;" xml:space="preserve">
<style type="text/css">
	.st0{fill:#FF9800;}
	.st1{fill:#00796B;}
	.st2{fill:#009688;}
</style>
<g>
	<circle class="st0" cx="300.6" cy="64" r="64"/>
	<path class="st1" d="M313.4,298.2l-117.8-52.5c-12.8-6.4-19.2,12.8-25.6,25.6c-6.4,12.8-52.5,92.2-48.6,106.2
		c3.8,11.5,14.1,17.9,24.3,17.9c2.6,0,5.1,0,7.7-1.3l157.4-48.6c10.2-2.6,17.9-12.8,17.9-23C328.8,312.3,322.4,302.1,313.4,298.2z"
		/>
	<path class="st2" d="M285.2,143.4l-28.2-12.8c-16.6-7.7-37.1,0-44.8,16.6L60,474.9c-6.4,12.8,0,28.2,12.8,34.6
		c3.8,1.3,7.7,2.6,11.5,2.6c10.2,0,19.2-5.1,23-14.1c0,0,122.9-170.2,133.1-190.7c10.2-20.5,62.7-119,62.7-119
		C309.6,171.5,303.2,151,285.2,143.4z"/>
	<path class="st0" d="M460.6,149.8c-9-10.2-25.6-12.8-35.8-3.8l-64,53.8l-81.9-44.8c-14.1-7.7-33.3-5.1-42.2,11.5
		c-10.2,16.6-5.1,37.1,10.2,43.5l106.2,43.5c3.8,1.3,7.7,2.6,11.5,2.6c6.4,0,11.5-2.6,16.6-6.4l76.8-64
		C468.3,176.6,469.6,161.3,460.6,149.8z"/>
	<path class="st0" d="M92,244.5l43.5-65.3l58.9,7.7l19.2-39.7c5.1-11.5,15.4-17.9,26.9-19.2c-1.3,0-2.6,0-2.6,0H122.7
		c-9,0-16.6,3.8-21.8,11.5l-51.2,76.8c-7.7,11.5-5.1,28.2,7.7,35.8c2.6,2.6,7.7,3.8,12.8,3.8C77.9,256,86.8,252.2,92,244.5z"/>
</g>
</svg>
